Coordinates
version=1
nRows=26
nColumns=22
inDegrees=yes

Units are S.I. units (second, meters, Newtons, ...)
If the header above contains a line with 'inDegrees', this indicates whether rotational values are in degrees (yes) or radians (no).

endheader
time	pelvis_tilt	pelvis_list	pelvis_rotation	pelvis_tx	pelvis_ty	pelvis_tz	hip_flexion_r	hip_adduction_r	hip_rotation_r	knee_angle_r	ankle_angle_r	subtalar_angle_r	hip_flexion_l	hip_adduction_l	hip_rotation_l	knee_angle_l	ankle_angle_l	subtalar_angle_l	lumbar_extension	lumbar_bending	lumbar_rotation
      0.01000000	     -9.03889610	     -0.90156323	    -10.08214668	     -1.10760619	      0.88696088	     -0.49458547	      8.79636413	     -1.32366768	      3.56510638	     -6.74083766	      9.60607512	     -3.06033674	      7.71094613	     -5.36133111	     -6.88768469	    -10.85385786	     13.62618441	      4.51087007	      3.21973438	      1.08214731	     10.51541307
      0.02000000	     -9.03249906	     -0.90150847	    -10.09130681	     -1.10760364	      0.88696315	     -0.49455059	      8.79232158	     -1.32150896	      3.56525047	     -6.74425861	      9.60696979	     -3.06081045	      7.70316868	     -5.36292296	     -6.88634328	    -10.85872550	     13.62535017	      4.51081626	      3.23484706	      1.07806621	     10.51357765
      0.03000000	     -9.02592739	     -0.90118148	    -10.10201695	     -1.10760163	      0.88696215	     -0.49451665	      8.78826034	     -1.31994695	      3.56601492	     -6.74739101	      9.60816217	     -3.06133607	      7.69456721	     -5.36467105	     -6.88645160	    -10.86279575	     13.62498298	      4.51057895	      3.25066212	      1.07565401	     10.51129507
      0.04000000	     -9.01161633	     -0.89883793	    -10.14515816	     -1.10758710	      0.88697320	     -0.49442569	      8.78097194	     -1.31540347	      3.61099607	     -6.75600696	      9.62932067	     -3.07455582	      7.65699532	     -5.36727881	     -6.93561570	    -10.83976578	     13.62624432	      4.50323592	      3.25989420	      1.07215149	     10.54027591
      0.05000000	     -9.00464242	     -0.89821314	    -10.15437853	     -1.10757797	      0.88697353	     -0.49440487	      8.77632120	     -1.31521098	      3.61168517	     -6.75936501	      9.62855070	     -3.07503749	      7.64911331	     -5.36725736	     -6.93475566	    -10.84597321	     13.62594823	      4.50300705	      3.27601183	      1.07248117	     10.53461143
      0.06000000	     -8.99906858	     -0.89732080	    -10.16782571	     -1.10757132	      0.88697162	     -0.49437767	      8.77302922	     -1.31459957	      3.62370369	     -6.76185785	      9.62993303	     -3.07814600	      7.63734245	     -5.36765079	     -6.94848534	    -10.84139605	     13.62972906	      4.50063981	      3.29087820	      1.07606355	     10.50689140
      0.07000000	     -8.99243519	     -0.89672470	    -10.17560496	     -1.10755878	      0.88697097	     -0.49436452	      8.76826953	     -1.31475430	      3.62609953	     -6.76575726	      9.63002969	     -3.07877978	      7.62995032	     -5.36680830	     -6.94812348	    -10.84695296	     13.62957785	      4.50026787	      3.30616673	      1.07888180	     10.50083043
      0.08000000	     -8.98586398	     -0.89648999	    -10.18672339	     -1.10755344	      0.88696843	     -0.49434748	      8.76598262	     -1.31403877	      3.64912591	     -6.77347704	      9.63623262	     -3.08315205	      7.61715878	     -5.36670034	     -6.96334692	    -10.84056304	     13.63414952	      4.49721126	      3.31897727	      1.08621619	     10.46106061
      0.09000000	     -8.97732412	     -0.89549024	    -10.19801212	     -1.10755077	      0.88696759	     -0.49433454	      8.76316247	     -1.31447723	      3.66744597	     -6.78254966	      9.64314476	     -3.08804112	      7.60537965	     -5.36513884	     -6.97151475	    -10.83996130	     13.63697734	      4.49467953	      3.33020953	      1.09271846	     10.43457052
      0.10000000	     -8.96757387	     -0.89385116	    -10.20812499	     -1.10754963	      0.88696573	     -0.49432503	      8.76138520	     -1.31611391	      3.68677395	     -6.79611028	      9.65112148	     -3.09297337	      7.59218433	     -5.36242368	     -6.97937651	    -10.83840313	     13.64014208	      4.49258860	      3.34062239	      1.09891226	     10.40785262
      0.11000000	     -8.95628714	     -0.89147548	    -10.22013012	     -1.10755450	      0.88696347	     -0.49431850	      8.76144059	     -1.31889959	      3.70835965	     -6.81391577	      9.66161327	     -3.09766369	      7.57701726	     -5.35841252	     -6.98714492	    -10.83554583	     13.64401019	      4.49088659	      3.34919940	      1.10546650	     10.38020565
      0.12000000	     -8.94214135	     -0.88841923	    -10.23070237	     -1.10755759	      0.88696059	     -0.49431157	      8.76161875	     -1.32241013	      3.73560135	     -6.83992572	      9.67914860	     -3.10330567	      7.55768132	     -5.35304782	     -6.99717973	    -10.82993399	     13.64910765	      4.48893716	      3.35578434	      1.10976684	     10.35750991
      0.13000000	     -8.92632165	     -0.88434609	    -10.24487630	     -1.10756636	      0.88695684	     -0.49430538	      8.76376888	     -1.32749094	      3.76494384	     -6.87025857	      9.69978042	     -3.10833634	      7.53513177	     -5.34619673	     -7.00837834	    -10.82243017	     13.65515434	      4.48705504	      3.35971758	      1.11395393	     10.33817047
      0.14000000	     -8.91061165	     -0.88018930	    -10.26130205	     -1.10758139	      0.88695113	     -0.49430227	      8.76702239	     -1.33258320	      3.79271667	     -6.89969278	      9.71838403	     -3.11151809	      7.51322334	     -5.33888429	     -7.01801098	    -10.81559145	     13.66166220	      4.48560458	      3.36217400	      1.11997824	     10.32063638
      0.15000000	     -8.88436074	     -0.87108899	    -10.28696821	     -1.10759070	      0.88695463	     -0.49427514	      8.76796355	     -1.34260095	      3.83163377	     -6.94613800	      9.76542454	     -3.11797427	      7.47427938	     -5.32679433	     -7.04373124	    -10.80156074	     13.66856535	      4.48159134	      3.35472916	      1.11565347	     10.33801700
      0.16000000	     -8.87178939	     -0.86911450	    -10.29695085	     -1.10760611	      0.88694648	     -0.49428433	      8.76970538	     -1.34644775	      3.85378159	     -6.96743128	      9.76827624	     -3.11853876	      7.45841325	     -5.32137875	     -7.05040646	    -10.79858220	     13.67358616	      4.48078211	      3.35976928	      1.12474900	     10.31460694
      0.17000000	     -8.86294168	     -0.86854554	    -10.29978362	     -1.10760604	      0.88693409	     -0.49428941	      8.76592184	     -1.34938551	      3.85903626	     -6.97592079	      9.76958684	     -3.11867238	      7.45076422	     -5.31913584	     -7.05029917	    -10.80287776	     13.67447954	      4.48067889	      3.37238467	      1.13196214	     10.31228889
      0.18000000	     -8.83145766	     -0.87025897	    -10.33391950	     -1.10765616	      0.88694899	     -0.49424708	      8.76949899	     -1.34594358	      3.91231208	     -7.03602715	      9.81881369	     -3.12000932	      7.40714056	     -5.31936184	     -7.08253486	    -10.79180212	     13.69948468	      4.47655131	      3.34681216	      1.14129870	     10.32408262
      0.19000000	     -8.82400978	     -0.86867104	    -10.34008232	     -1.10767155	      0.88693884	     -0.49424519	      8.76726318	     -1.34913273	      3.91484728	     -7.04060998	      9.81848214	     -3.12011784	      7.40124599	     -5.31689382	     -7.08265516	    -10.79643200	     13.69955020	      4.47649641	      3.35669139	      1.14927928	     10.32077993
      0.20000000	     -8.80596447	     -0.87150170	    -10.35834315	     -1.10772332	      0.88694707	     -0.49421930	      8.76864893	     -1.34509954	      3.94535721	     -7.07110762	      9.82530570	     -3.12005742	      7.38218752	     -5.31981427	     -7.10428531	    -10.79818845	     13.71106853	      4.47417312	      3.34586547	      1.16209524	     10.30716531
      0.21000000	     -8.79942940	     -0.86944070	    -10.36897281	     -1.10776542	      0.88694350	     -0.49421330	      8.76802491	     -1.34758834	      3.94535276	     -7.07242783	      9.82636021	     -3.12020278	      7.37862218	     -5.31726449	     -7.10407612	    -10.80282224	     13.71145217	      4.47406621	      3.35098718	      1.17202461	     10.30716344
      0.22000000	     -8.79249411	     -0.86771016	    -10.38077675	     -1.10781274	      0.88694220	     -0.49420185	      8.76773128	     -1.34902534	      3.94655398	     -7.07514246	      9.82742800	     -3.12029678	      7.37478210	     -5.31549246	     -7.10535101	    -10.80786129	     13.71232247	      4.47375765	      3.35449824	      1.18266682	     10.30652477
      0.23000000	     -8.76723110	     -0.88495818	    -10.41812598	     -1.10788846	      0.88696856	     -0.49413202	      8.76316037	     -1.32577649	      3.98315728	     -7.10782918	      9.83994191	     -3.11966511	      7.35147229	     -5.33920549	     -7.16824720	    -10.82735820	     13.73530023	      4.46611656	      3.32772422	      1.21106904	     10.33578108
      0.24000000	     -8.76204555	     -0.88163926	    -10.43049576	     -1.10794712	      0.88697026	     -0.49411508	      8.76323989	     -1.32800626	      3.98185538	     -7.10626628	      9.83985904	     -3.11979110	      7.35021394	     -5.33651459	     -7.16734737	    -10.83108412	     13.73519489	      4.46610842	      3.33099485	      1.22034774	     10.33453004
      0.25000000	     -8.75621560	     -0.87904802	    -10.44111391	     -1.10800540	      0.88697319	     -0.49410365	      8.76316311	     -1.33002288	      3.98136760	     -7.10590116	      9.83946811	     -3.11984637	      7.34874186	     -5.33445350	     -7.16777143	    -10.83572328	     13.73484805	      4.46589734	      3.33409088	      1.23096328	     10.33416645
      0.26000000	     -8.74995933	     -0.87703163	    -10.45216643	     -1.10806708	      0.88697789	     -0.49409234	      8.76309712	     -1.33128457	      3.98097603	     -7.10612185	      9.83880440	     -3.11983680	      7.34757211	     -5.33307632	     -7.16891489	    -10.84152321	     13.73422652	      4.46547327	      3.33610645	      1.24263723	     10.33451102
